<?xml version="1.0" encoding="UTF-8"?>
<svg viewBox="0 0 80 20"  xmlns="http://www.w3.org/2000/svg"><path fill="#11aefa" d="m69.3330606 1.38423938c.2475967 0 .4920191.01498342.7336199.04406889.1611848.0195666.3131993.04565538.4558672.07809009l.2072123.05376406-.1943387 2.28840979c-.1061633-.03507884-.2296089-.06434059-.3712187-.08778525-.1414335-.0237972-.2830433-.03543139-.4248295-.03543139-.2710514 0-.4888448.04724186-.6540856.14066793-.1654172.09430744-.2945061.22016822-.3886775.3784637-.0947004.15847176-.1592449.33756777-.1946914.53693547-.023631.13326435-.0395026.0527064-.0474384.18544192l-.0058196.1993677v.70474984l5.6703882-.0007051v5.06140117c0 .2515453.0179878.4907513.0541397.7184994.0363283.2272192.1056342.4276446.2079178.6014523.1021072.1732789.2375447.3113027.4054308.4130137.1687679.1015348.3847978.1526547.6495005.1526547.517061 0 .9142033-.1824453 1.1905452-.5480409.2463623-.324347.3825052-.7174416.4096633-1.1791074l.0051141-.1764519-.0539633-5.04342107h3.0126031v10.01756587c0 .550685-.0601357 1.0743997-.180407 1.5713207-.119566.4965683-.3273074.9337318-.6221661 1.3107853-.2946825.3772298-.6914721.6763695-1.1908979.8977716-.4983678.2214021-1.1208866.3322795-1.8670275.3322795-.2521818 0-.5018947-.0149834-.7484334-.044774-.1641827-.0200954-.3193715-.046713-.464861-.0798528l-.2116212-.0546455.143726-2.2487478c.1440788.023621.7221571.039662.8664122.039662.2772237 0 .4990732-.0481232.6676647-.1436646.1685915-.0958939.3006783-.2242225.3966132-.3858672.0966404-.1614685.1624193-.34409.1983949-.5476883.0243364-.1359085.0403843-.2714644.0484965-.4070204l.0059959-.2035983v-1.1771684l-.0363283-.8521163c-.2047434.3592497-.5288765.6793662-.9745153.9608783-.4444044.2809833-.9798058.4220038-1.6051463.4220038-.6133485 0-1.1277642-.1077044-1.542189-.3234657-.4153064-.2150562-.751784-.4933954-1.0103145-.8350175-.2585305-.340917-.4449334-.7329539-.5595615-1.1759345-.0911735-.354314-.146195-.7088042-.1645355-1.0631181l-.0068777-.2656474v-3.59566958h-2.6937606v7.06477338h-2.8997385v-7.06477338h-1.6739232v-2.14756559h1.6739232v-.66914217c0-.53993215.0587248-.83977694.1767036-1.32700268.1174497-.48669693.3211351-.91539918.6101743-1.28487283.2886865-.36964992.6775403-.66297251 1.1669142-.87996777.4886684-.21717154 1.0991954-.3257573 1.8303464-.3257573zm-59.51745535-1.29936268c.20985765-.11316893.46309755-.11316893.67295515 0l5.7412813 3.27096996c.4932536.26617616.4932536.97127854 0 1.23763097l-3.0143666 1.79924501.2073887 6.14831656c0 .2582437-.1421389.4956869-.3701607.6189036l-6.26839419 3.2707937c-.20985762.1131689-.46309757.1131689-.67313154 0l-5.74110492-3.2707937c-.49342993-.2663524-.49342993-.9716311 0-1.237631l3.01366125-1.8001264.00017635-6.14761139c0-.25824375.14196251-.49586325.36998427-.61872735zm30.05908855 5.47935064c.6840653 0 1.3263355.11017224 1.9266341.32998791.6001222.21963939 1.1282933.5374643 1.5848659.95259332.4560435.41530531.8161522.92209765 1.0803259 1.52020075.2641737.59827937.3959078 1.27006567.3959078 2.01465378 0 .745117-.1317341 1.4198999-.3959078 2.024349-.2641737.604449-.6242824 1.117411-1.0803259 1.5387096-.4565726.4211224-.9847437.7481137-1.5848659.9797398-.6002986.2319787-1.2425688.3483206-1.9266341.3483206-.6726025 0-1.3118746-.1163419-1.9183455-.3483206-.6064709-.2316261-1.1342893-.5586174-1.5845132-.9797398-.4504003-.4212986-.8076873-.9342606-1.071332-1.5387096-.2647028-.6044491-.3964369-1.279232-.3964369-2.024349 0-.74458811.1317341-1.41637441.3964369-2.01465378.2636447-.5981031.6209317-1.10489544 1.071332-1.52020075.4502239-.41512902.9780423-.73295393 1.5845132-.95259332.6064709-.21981567 1.245743-.32998791 1.9183455-.32998791zm8.9721011.2823935v4.83911766c0 .2510165.0181641.4902224.0539634.7169129.0365046.2272192.1051051.4302887.207565.6093847.1014018.1794486.236663.3199402.4050782.4211224.1675334.1018873.3897355.1526547.6660775.1526547.0345648 0 .0684241.0082849.1014018.0239734.0363283-.0195665.0744201-.0303194.11357-.0303194.2754601 0 .4967806-.0505911.6636086-.1521258.1678861-.1008296.3026182-.2407925.4036673-.4195359.1022835-.1785672.1705313-.3809316.2068596-.6074457.0357993-.2258091.0537871-.4641337.0537871-.7142687v-4.82201898h2.9609323v5.50085628c0 .1316779-.0047615.2624743-.0144608.392742l.0144608-.0042306c-.0155189.1399628-.0354466.275695-.059783.4071966-.0276871.1796249-.0643681.3580158-.1103957.5346439-.11357.4350482-.2990912.8217968-.5567399 1.1611274-.2571197.3393305-.5918338.6160832-1.005024.8306106-.0978748.0507673-.2012165.0957176-.3098486.1344983-.640154.2892682-1.4273846.4398076-2.3622209.4514418-1.2762518.0162173-2.2779251-.2414976-3.0043146-.7729685-.2625866-.179096-.4861996-.3900979-.6699573-.6328294-.2585305-.3405645-.4449334-.7285471-.5586798-1.1650054-.0412661-.1586481-.0751255-.3183538-.1015781-.4792934l-.0387972-.2303922-.0305087-.2390297.0146371.0089901-.0077594-.1240981-.0068777-.2714644v-5.52024656zm10.6554061-.28237588c.6724261 0 1.3298624.10735184 1.9719562.32064531.5620305.18738096 1.0484064.45620125 1.458775.80663713l.1712368.1552988-1.6211943 1.70317481c-.2398372-.23162613-.5218224-.42711577-.8463081-.5857638-.3241331-.15882432-.6662539-.23850088-1.0263625-.23850088-.2763419 0-.5309927.05517426-.7650104.16499395-.2345467.1098197-.3516438.29949224-.3516438.56795997 0 .25630472.1289126.43963134.3876194.54945104.2580014.11017225.6750714.23197868 1.2512099.36630069.3361249.07333065.6752478.17715697 1.017545.31147898.3421208.13449828.651264.3113027.9277823.53111834.2758128.2196394.498015.488636.6662538.8061083.1677098.3174724.2518292.6959361.2518292 1.1353911 0 .5743059-.1144518 1.0597689-.3421208 1.4565653-.2283745.3969726-.5249968.7172654-.8912777.9614071-.3661046.2444943-.777355.421475-1.2335748.5312946-.4565726.1098197-.9122635.164994-1.3690124.164994-.7318564 0-1.4494284-.1193386-2.1516579-.3573106-.6149357-.2083578-1.1395797-.5030906-1.5748139-.884551l-.1811124-.168872 1.6568171-1.7766817c.2643501.2931463.5877777.5374643.9727518.7326014.383916.1956659.7923448.2934988 1.2242283.2934988.2400136 0 .477382-.0579947.7112233-.1743365.2345468-.1158131.3511147-.3202928.3511147-.6137917 0-.2806307-.1435496-.4881071-.4317071-.6226054-.2886865-.1339694-.7389104-.2748136-1.3506718-.4211224-.3123176-.0735069-.6244587-.1709873-.9369526-.2933226-.3121412-.1219827-.590952-.2868004-.8373143-.494453-.2461859-.2074764-.4468733-.4637811-.6029438-.769443-.1565997-.30495678-.2341941-.67125747-.2341941-1.09872579 0-.54962731.11357-1.01675764.3419445-1.40156726.2281981-.38463335.5221751-.69875647.8826365-.94325072.3604613-.2441417.7591908-.42411908 1.1977755-.5402847.4380558-.11616562.8731136-.17433657 1.3051734-.17433657zm-47.699297 1.61678215-9.93349584 5.36001209 4.5782468 2.5771492 5.56193234-2.9963326zm13.2459309-5.75277172 2.9535256.00757985v5.53981317h.0357992c.2043907-.35836829.5279947-.67777967.9727518-.95876297.3943207-.24942997.8605926-.38833514 1.3977576-.41601041l.2047434-.00528827c.6124668 0 1.1256481.10770439 1.5395437.32258435.4146011.21505622.7505496.49286656 1.0085511.83343101.2580014.34074073.444228.73224883.5586797 1.17399548.0911735.35396139.1460186.70774652.1641828 1.06117909l.0068777.26511849v5.84053932h-2.9715134v-5.15941041c0-.25101645-.0181642-.48986988-.0541397-.71673658-.0363283-.22704297-.1051052-.42711577-.2073888-.60057095-.1019308-.17310264-.237192-.3105976-.4049017-.41230862-.1345558-.08108678-.2997966-.12991512-.4957225-.14613247l-.1527199-.00634592c-.5160029 0-.9124398.18244524-1.1886054.5468069-.2454805.32417082-.3816234.71638402-.4087815 1.1773447l-.0051141.17609932v5.14125403h-2.9535256zm14.8258589 6.62374944c-.3484694 0-.654791.06733727-.9189647.20165928-.2639974.13449828-.483378.30865857-.6570836.52212831-.1742348.21417485-.3057926.46131324-.3962606.74264909-.0901153.28080703-.1352612.56778369-.1352612.86092999 0 .2934989.0451459.5804756.1352612.8614589.090468.2809833.2250238.5344676.4050781.7608054.1800543.2259854.4020802.406139.6662539.5401085.2641737.1350271.5703189.2018355.9187884.2018355.347764 0 .6540856-.0668084.918083-.2018355.2641737-.1339695.4865522-.3141231.6666065-.5401085.1800544-.2263378.3151392-.4798221.4052545-.7608054.089939-.2809833.1347321-.56796.1347321-.8614589 0-.2931463-.0477911-.58012296-.1435496-.86092999-.0966404-.28133585-.2345468-.52847424-.4146011-.74264909-.179878-.21346974-.4020801-.38763003-.6662539-.52212831-.2641737-.13432201-.5703189-.20165928-.918083-.20165928zm-29.6779942-6.66374637-5.39968945 2.8986759v5.04765171l9.93331955-5.36001206z"></path></svg>